<?xml version="1.0" encoding="UTF-8"?>
<!DOCTYPE svg PUBLIC "-//W3C//DTD SVG 1.1//EN" "http://www.w3.org/Graphics/SVG/1.1/DTD/svg11.dtd">
<!-- Creator: CorelDRAW X7 -->
<svg xmlns="http://www.w3.org/2000/svg" xml:space="preserve" width="50mm" height="50mm" version="1.1" style="shape-rendering:geometricPrecision; text-rendering:geometricPrecision; image-rendering:optimizeQuality; fill-rule:evenodd; clip-rule:evenodd"
viewBox="0 0 5000 5000"
 xmlns:xlink="http://www.w3.org/1999/xlink">
 <defs>
  <style type="text/css">
   <![CDATA[
    .fil0 {fill:#727272}
   ]]>
  </style>
 </defs>
 <g id="Layer_x0020_1">
  <metadata id="CorelCorpID_0Corel-Layer"/>
  <g id="_2611001711888">
   <path class="fil0" d="M562 2644c-21,-301 24,-587 119,-846 43,-118 97,-232 158,-329 132,-210 208,-291 388,-455 282,-258 730,-424 1133,-451 1145,-76 2009,742 2079,1798 76,1145 -742,2009 -1798,2079 -1146,76 -2006,-741 -2079,-1796zm3658 -1765c-28,-16 -52,-49 -77,-73 -27,-26 -49,-42 -78,-71 -20,-21 -55,-47 -80,-68 -241,-205 -564,-368 -878,-458 -79,-22 -160,-40 -244,-53 -40,-7 -252,-24 -265,-32 -50,10 -188,3 -252,8 -990,67 -1855,778 -2138,1764 -206,720 -12,1484 406,2023 71,93 162,201 244,278 1094,1031 2687,851 3542,-294 600,-804 647,-1879 50,-2733 -65,-94 -104,-140 -171,-221 -18,-22 -49,-43 -59,-70z"/>
   <path class="fil0" d="M2051 2170c90,3 153,-11 204,48 48,56 30,134 12,210 -32,135 -75,270 -115,402 -40,133 -79,267 -116,400 -37,133 -81,265 -116,401 -127,484 352,551 652,302 94,-77 179,-175 246,-277 24,-35 88,-124 100,-163l-72 -43c-56,73 -222,349 -325,326 -19,-4 -43,-26 -49,-47 -16,-64 279,-1039 319,-1180 41,-142 143,-470 169,-588 -106,0 -159,4 -261,21l-480 77c-142,23 -143,-5 -168,111z"/>
   <path class="fil0" d="M2788 944c-170,20 -306,167 -285,362 18,167 171,308 363,285 167,-21 302,-173 281,-365 -18,-167 -170,-303 -359,-282z"/>
  </g>
 </g>
</svg>
